<?xml version="1.0" encoding="iso-8859-1"?>
<svg version="1.1" id="Layer_1" xmlns="http://www.w3.org/2000/svg" xmlns:xlink="http://www.w3.org/1999/xlink"
	 viewBox="0 0 507.6 507.6" style="enable-background:new 0 0 507.6 507.6;" xml:space="preserve">
<path style="fill:#FFC52F;" d="M352.2,348.8c-9.2-9.2-24.4-9.2-34,0l-27.6,27.6v-246l28,28c9.2,9.2,24.4,9.2,33.6,0l16.8-16.8
	c9.2-9.2,9.2-24.4,0-33.6l-97.2-97.6C267,5.6,261,3.6,255,3.6s-12.4,2.4-16.8,6.8L141,107.6c-9.2,9.2-9.2,24.4,0,33.6l16.8,16.8
	c9.2,9.2,23.6,9.2,33.2,0l28.4-28.8v247.6h-0.8l-27.6-28c-9.2-9.2-24.4-9.2-33.6,0L141,365.6c-9.2,9.2-9.2,24.4,0,33.6l97.6,97.2
	c4.8,4.8,10.8,6.8,16.8,6.8s12.4-2.4,16.8-6.8l97.2-97.2c9.2-9.2,9.2-24.4,0-33.6L352.2,348.8z"/>
<path style="fill:#F0C960;" d="M327.8,367.6c4-4,10.8-4,14.8,0l7.6,7.6c4,4,4,10.8,0,14.8L339,401.2l-20,20L262.2,478
	c-2,2-4.8,3.2-7.6,2.8c-2.8,0-5.6-0.8-7.6-2.8l-88.4-88c-4-4-4-10.8,0-14.8l7.6-7.6c4-4,10.4-4,14.4,0l56,56.4l0.4,0.8h0.8V81.6
	l-1.6,2l-55.6,56c-4,4-10.4,4-14.4,0l-7.6-7.6c-4-4-4-10.8,0-14.8l11.2-11.2l20-20l56.8-56.8c2-2,4.8-3.2,7.6-3.2s5.6,0.8,7.6,3.2
	l88,88c4,4,4,10.8,0,14.8l-7.6,7.6c-4,4-10.8,4-14.8,0L271,83.2l-1.2-0.8V424l0.8-0.4L327.8,367.6z"/>
<path d="M254.6,507.6L254.6,507.6c-7.6,0-14.4-2.8-20-8L137,402.4c-5.2-5.2-8-12.4-8-19.6c0-7.6,2.8-14.4,8-19.6l16.4-16.8
	c5.2-5.2,12-8,19.6-8s14.4,2.8,19.6,8l21.6,21.6V139.2l-21.6,22c-10.8,10.8-28,10.8-38.8,0L137,144.4c-5.2-5.2-8-12.4-8-19.6
	s2.8-14.4,8-19.6L234.2,8c5.2-5.2,12.4-8,19.6-8l0,0c7.6,0,14.4,2.8,19.6,8l97.2,97.6c5.2,5.2,8,12.4,8,19.6c0,7.6-2.8,14.4-8,19.6
	l-16.8,16.8c-10.8,10.8-28.4,10.8-39.6,0L293,140.4v226.8l20.8-20.8c10.8-10.8,28.8-10.8,39.6,0l0,0l16.8,16.8
	c5.2,5.2,8,12.4,8,19.6c0,7.6-2.8,14.4-8,19.6L273,499.6C269,504.8,262.2,507.6,254.6,507.6z M254.6,499.6L254.6,499.6
	c5.6,0,10.4-2,14-5.6l97.2-97.2c3.6-3.6,5.6-8.8,5.6-14s-2-10.4-5.6-14L349,352c-7.6-7.6-20.4-7.6-28,0l-27.6,27.6
	c-1.2,1.2-2.8,1.6-4.4,0.8c-1.6-0.8-2.4-2-2.4-3.6v-246c0-1.6,0.8-3.2,2.4-3.6c1.6-0.8,3.2-0.4,4.4,0.8l28,28c7.6,7.6,20.4,7.6,28,0
	l16.8-16.8c3.6-3.6,5.6-8.8,5.6-14s-2-10.4-5.6-14L269,13.6C265.4,10,260.2,8,255,8l0,0c-5.2,0-10.4,2-14,5.6l-97.2,97.2
	c-3.6,3.6-5.6,8.8-5.6,14s2,10.4,5.6,14l16.8,16.8c7.6,7.6,19.6,7.6,27.6,0l28.4-28.8c1.2-1.2,2.8-1.6,4.4-0.8
	c1.6,0.8,2.4,2,2.4,3.6v247.6c0,1.2-0.4,2-1.2,2.8s-2,1.2-2.8,1.2h-0.8c-1.2,0-2-0.4-2.8-1.2l-27.6-28c-3.6-3.6-8.8-5.6-14-5.6
	s-10.4,2-14,5.6l-16.4,16.8c-3.6,3.6-5.6,8.8-5.6,14s2,10.4,5.6,14l97.6,97.2C244.2,497.6,249,499.6,254.6,499.6L254.6,499.6z"/>
<path d="M270.6,428.4c-0.8,0-1.2,0-2-0.4c-1.2-0.8-2-2-2-3.6V82.8c0-1.6,0.8-2.8,2-3.6c1.2-0.8,2.8-0.4,4,0.4l1.2,0.8l0.4,0.4
	l56.4,56.4c2.4,2.4,6.8,2.4,9.2,0l7.6-7.6c1.2-1.2,2-2.8,2-4.4s-0.8-3.2-2-4.4l-88-88c-1.2-1.2-2.8-2-4.8-2s-3.6,0.8-4.8,2l-4.4,4.4
	c-1.6,1.6-4,1.6-5.6,0s-1.6-4,0-5.6l4.4-4.4c2.8-2.8,6.4-4.4,10.4-4c3.6,0,7.6,1.6,10.4,4l88,88.4c2.8,2.8,4,6.4,4,10
	c0,4-1.6,7.6-4.4,10l-7.6,7.6c-5.6,5.6-14.8,5.6-20.4,0l-50.8-50.4v322.8l30-30c1.6-1.6,4-1.6,5.6,0s1.6,4,0,5.6l-36,35.6
	c0,0-0.4,0.4-0.8,0.4l-0.8,0.4C272.2,428,271.4,428.4,270.6,428.4z"/>
<path d="M254.6,484.8h-0.4c-3.6,0-7.2-1.6-10-4l-88.4-88c-2.8-2.8-4-6.4-4-10c0-4,1.6-7.6,4-10l7.6-7.6c5.6-5.6,14.8-5.6,20.4,0
	l50.8,50.8V92.4l-50.4,50.8c-5.6,5.6-14.8,5.6-20.4,0l-7.6-7.6c-2.8-2.8-4-6.4-4-10c0-4,1.6-7.6,4-10L215,56.8c1.6-1.6,4-1.6,5.6,0
	s1.6,4,0,5.6l-58.8,58.8c-1.2,1.2-2,2.8-2,4.4s0.8,3.2,2,4.4l7.6,7.6c2.4,2.4,6.4,2.4,8.8,0l55.6-56L235,80c1.2-1.2,2.8-2,4.4-1.6
	c1.6,0.4,2.8,2,2.8,3.6v343.2c0,1.2-0.4,2-1.2,2.8s-2,1.2-3.2,1.2H237c-1.2,0-2.4-0.8-3.2-1.6l-0.4-0.4l-56-56
	c-2.4-2.4-6.4-2.4-8.8,0l-7.6,7.6c-1.2,1.2-2,2.8-2,4.4s0.8,3.2,2,4.4l88.4,88c1.2,1.2,2.8,1.6,4.4,2c1.6,0,3.6-0.8,4.8-2l88-88
	c2.4-2.4,2.4-6.4,0-8.8l-7.6-7.6c-2.4-2.4-6.4-2.4-8.8,0c-1.6,1.6-4,1.6-5.6,0s-1.6-4,0-5.6c5.6-5.6,14.8-5.6,20.4,0l7.6,7.6
	c5.6,5.6,5.6,14.8,0,20.4l-88,88C262.2,483.6,258.6,484.8,254.6,484.8z"/>
<g>
</g>
<g>
</g>
<g>
</g>
<g>
</g>
<g>
</g>
<g>
</g>
<g>
</g>
<g>
</g>
<g>
</g>
<g>
</g>
<g>
</g>
<g>
</g>
<g>
</g>
<g>
</g>
<g>
</g>
</svg>
