<svg id="Capa_1" enable-background="new 0 0 512 512"  viewBox="0 0 512 512" xmlns="http://www.w3.org/2000/svg"><path d="m306 391h-100v-241c0-13.255 10.745-24 24-24h52c13.255 0 24 10.745 24 24z" fill="#ffca28"/><path d="m282 126h-30c13.255 0 24 10.745 24 24v241h30v-241c0-13.255-10.745-24-24-24z" fill="#ffb300"/><path d="m178 391h-100v-174c0-13.255 10.745-24 24-24h52c13.255 0 24 10.745 24 24z" fill="#ff3d7a"/><path d="m154 193h-30c13.255 0 24 10.745 24 24v174h30v-174c0-13.255-10.745-24-24-24z" fill="#eb3870"/><path d="m434 391h-100v-306c0-13.255 10.745-24 24-24h52c13.255 0 24 10.745 24 24z" fill="#80deea"/><path d="m410 61h-30c13.255 0 24 10.745 24 24v306h30v-306c0-13.255-10.745-24-24-24z" fill="#4dd0e1"/><path d="m474.5 451h-437c-16.569 0-30-13.431-30-30 0-16.569 13.431-30 30-30h437c16.569 0 30 13.431 30 30 0 16.569-13.431 30-30 30z" fill="#8c9eff"/><path d="m474.5 391h-30c16.569 0 30 13.431 30 30 0 16.569-13.431 30-30 30h30c16.569 0 30-13.431 30-30 0-16.569-13.431-30-30-30z" fill="#7488ed"/><path d="m474.5 383.5h-33v-255.627c0-4.142-3.357-7.5-7.5-7.5s-7.5 3.358-7.5 7.5v255.627h-85v-298.5c0-9.098 7.402-16.5 16.5-16.5h52c9.098 0 16.5 7.402 16.5 16.5v10.5c0 4.142 3.357 7.5 7.5 7.5s7.5-3.358 7.5-7.5v-10.5c0-17.369-14.131-31.5-31.5-31.5h-52c-17.369 0-31.5 14.131-31.5 31.5v298.5h-13v-233.5c0-17.369-14.131-31.5-31.5-31.5h-52c-17.369 0-31.5 14.131-31.5 31.5v233.5h-13v-166.5c0-17.369-14.131-31.5-31.5-31.5h-52c-17.369 0-31.5 14.131-31.5 31.5v39c0 4.142 3.357 7.5 7.5 7.5s7.5-3.358 7.5-7.5v-39c0-9.098 7.402-16.5 16.5-16.5h52c9.098 0 16.5 7.402 16.5 16.5v166.5h-85v-95.721c0-4.142-3.357-7.5-7.5-7.5s-7.5 3.358-7.5 7.5v95.721h-33c-20.678 0-37.5 16.822-37.5 37.5s16.822 37.5 37.5 37.5h90.5c4.143 0 7.5-3.358 7.5-7.5s-3.357-7.5-7.5-7.5h-90.5c-12.406 0-22.5-10.093-22.5-22.5s10.094-22.5 22.5-22.5h437c12.406 0 22.5 10.093 22.5 22.5s-10.094 22.5-22.5 22.5h-314.494c-4.143 0-7.5 3.358-7.5 7.5s3.357 7.5 7.5 7.5h314.494c20.678 0 37.5-16.822 37.5-37.5s-16.822-37.5-37.5-37.5zm-261 0v-233.5c0-9.098 7.402-16.5 16.5-16.5h52c9.098 0 16.5 7.402 16.5 16.5v233.5z"/></svg>