<?xml version="1.0" encoding="utf-8"?>
<!-- Generator: Adobe Illustrator 22.1.0, SVG Export Plug-In . SVG Version: 6.00 Build 0)  -->
<svg xmlns="http://www.w3.org/2000/svg" xmlns:xlink="http://www.w3.org/1999/xlink" version="1.1" id="Layer_1" x="0px" y="0px" viewBox="0 0 256 256" style="enable-background:new 0 0 256 256;" xml:space="preserve" >
<style type="text/css">
	.st0{fill:#FFA730;}
	.st1{fill:#E58D23;}
	.st2{fill:#FFB74B;}
	.st3{fill:#BF6C0D;}
	.st4{fill:#A56021;}
	.st5{fill:#CCC033;}
	.st6{fill:#99AF17;}
	.st7{fill:#EACF32;}
	.st8{fill:#FCDA4F;}
	.st9{fill:#FFDF74;}
	.st10{fill:#FCE575;}
	.st11{fill:#FFD551;}
	.st12{fill:#FFC34C;}
	.st13{fill:#F9BB32;}
	.st14{fill:#FFF4C1;}
	.st15{fill:#DB9C2E;}
	.st16{fill:#8C4C17;}
	.st17{fill:#FF624B;}
	.st18{fill:#FF4B34;}
	.st19{fill:#FF9079;}
	.st20{fill:#FFD59A;}
	.st21{fill:#FFEACF;}
	.st22{fill:#FCF9DE;}
</style>
<g>
	<g>
		<g>
			<path class="st3" d="M152.364,129.331V37.695c0-5.665-4.235-10.273-9.441-10.273h-29.844c-5.206,0-9.442,4.609-9.442,10.273     v91.636H86V33.878C86,19.24,97.163,7.331,110.883,7.331h34.234C158.837,7.331,170,19.24,170,33.878v95.453H152.364z"/>
		</g>
	</g>
	<g>
		<g>
			<g>
				<path class="st4" d="M130.883,7.331h-20C97.163,7.331,86,19.24,86,33.878v95.453h17.636V37.695c0-2.705,0.973-5.161,2.549-6.998      C107.663,17.554,118.172,7.331,130.883,7.331z"/>
			</g>
		</g>
	</g>
	<g>
		<g>
			<path class="st4" d="M219.815,248.669H36.185c-11.35,0-19.925-10.08-17.883-21.022L46.875,74.535     c1.579-8.463,9.104-14.611,17.883-14.611h126.485c8.779,0,16.303,6.148,17.883,14.611l28.573,153.112     C239.74,238.589,231.165,248.669,219.815,248.669z"/>
		</g>
	</g>
	<g>
		<g>
			<path class="st3" d="M212.804,140.878c-1.417,0-2.676-1.007-2.946-2.45l-11.547-61.875c-0.608-3.262-3.582-5.629-7.069-5.629     c-1.657,0-3-1.343-3-3s1.343-3,3-3c6.375,0,11.829,4.428,12.967,10.528l11.547,61.875c0.304,1.629-0.77,3.195-2.399,3.5     C213.172,140.861,212.987,140.878,212.804,140.878z"/>
		</g>
	</g>
	<g>
		<g>
			<path class="st12" d="M114.692,190.975c-1.829,0-3.563-0.795-4.759-2.182l-17.399-20.18v16.048c0,3.482-2.823,6.314-6.294,6.314     h-6.567c-3.471,0-6.294-2.832-6.294-6.314v-61.612c0-3.482,2.823-6.314,6.294-6.314h6.567c3.471,0,6.294,2.832,6.294,6.314     v16.483l17.47-20.578c1.199-1.411,2.945-2.22,4.792-2.22h7.933c2.496,0,4.69,1.415,5.726,3.693     c1.036,2.278,0.664,4.868-0.972,6.76l-23.088,26.688l23.461,26.601c1.638,1.856,2.04,4.516,1.025,6.777     c-1.015,2.26-3.267,3.721-5.739,3.721H114.692z"/>
		</g>
	</g>
	<g>
		<g>
			<path class="st12" d="M161.787,216.735c-15.001,0-26.143-7.279-29.079-18.995c-0.48-1.918-0.063-3.91,1.146-5.465     c1.199-1.543,3.005-2.427,4.955-2.427h6.707c2.482,0,4.74,1.482,5.754,3.775c1.428,3.23,5.556,5.317,10.518,5.317     c6.506,0,10.161-3.826,10.336-10.791c-3.375,1.982-7.974,3.678-13.829,3.678c-16.386,0-28.742-13.495-28.742-31.39     c0-17.914,12.088-30.917,28.742-30.917c5.333,0,10.438,1.406,14.683,4.003c1.09-1.883,3.123-3.151,5.446-3.151h6.661     c3.471,0,6.294,2.832,6.294,6.314v50.931C191.379,205.034,179.487,216.735,161.787,216.735z M160.56,147.315     c-5.572,0-11.57,4.106-11.57,13.122c0,8.926,5.82,13.596,11.57,13.596c5.572,0,11.57-4.195,11.57-13.406     C172.13,151.48,166.133,147.315,160.56,147.315z"/>
		</g>
	</g>
	<g>
		<g>
			<path class="st16" d="M46.302,227.647L74.875,74.535c1.579-8.463,9.104-14.611,17.883-14.611h-28     c-8.779,0-16.303,6.148-17.883,14.611L18.302,227.647c-2.042,10.942,6.533,21.022,17.883,21.022h28     C52.835,248.669,44.26,238.589,46.302,227.647z"/>
		</g>
	</g>
	<g>
		<g>
			<circle class="st16" cx="64.379" cy="230.349" r="9"/>
		</g>
	</g>
	<g>
		<g>
			<circle class="st16" cx="90.758" cy="78.924" r="9"/>
		</g>
	</g>
</g>
</svg>
