<svg  viewBox="0 0 64 64" xmlns="http://www.w3.org/2000/svg"><g id="Layer_18" data-name="Layer 18"><path d="m6 2h40v54h-40z" fill="#c8cded"/><path d="m42 62h-40v-54h31l9 9z" fill="#e2e7f6"/><path d="m2 58h36v-45l-5-5h-31z" fill="#f2f2f2"/><path d="m33 8v9h9" fill="#fff"/><path d="m40 48 3.293 3.293a2.414 2.414 0 0 0 1.707.707 2.414 2.414 0 0 0 1.707-.707l4.586-4.586a2.414 2.414 0 0 0 .707-1.707 2.414 2.414 0 0 0 -.707-1.707l-3.293-3.293" fill="#3b5892"/><path d="m48 40-6.5 6.5 1.793 1.793a2.414 2.414 0 0 0 3.414 0l4.586-4.586a2.4 2.4 0 0 0 .17-.207 2.4 2.4 0 0 0 -.17-.207z" fill="#4c6cb5"/><path d="m12.98 11.8a1 1 0 0 0 -.98-.8h-3a1 1 0 0 0 -.98.8l-1 5a1 1 0 0 0 -.02.2v4h2v-3h3v3h2v-4a1 1 0 0 0 -.02-.2zm-1.8 1.2.6 3h-2.56l.6-3z" fill="#78a0d4"/><path d="m19 11h-3a1 1 0 0 0 -1 1v8a1 1 0 0 0 1 1h3a3 3 0 0 0 2.234-5 3 3 0 0 0 -2.234-5zm0 8h-2v-2h2a1 1 0 0 1 0 2zm0-4h-2v-2h2a1 1 0 0 1 0 2z" fill="#78a0d4"/><path d="m30 15v-1a3 3 0 0 0 -3-3h-1a3 3 0 0 0 -3 3v4a3 3 0 0 0 3 3h1a3 3 0 0 0 3-3v-1h-2v1a1 1 0 0 1 -1 1h-1a1 1 0 0 1 -1-1v-4a1 1 0 0 1 1-1h1a1 1 0 0 1 1 1v1z" fill="#78a0d4"/><circle cx="36" cy="36" fill="#78a0d4" r="14"/><path d="m49 54 3.488 5.581a5.147 5.147 0 0 0 4.365 2.419 5.147 5.147 0 0 0 5.147-5.147 5.147 5.147 0 0 0 -2.419-4.365l-5.581-3.488z" fill="#3b5892"/><path d="m59.581 52.488-5.581-3.488-3.231 3.231 2.719 4.35a5.147 5.147 0 0 0 4.365 2.419 5.125 5.125 0 0 0 4.147-2.119c0-.01 0-.019 0-.028a5.147 5.147 0 0 0 -2.419-4.365z" fill="#4c6cb5"/><path d="m48.129 48.482h4.243v3.536h-4.243z" fill="#78a0d4" transform="matrix(.707 -.707 .707 .707 -20.814 50.25)"/><path d="m48.5 49.5.793.793a1 1 0 0 0 1.414 0l1.293-1.293-1.5-1.5z" fill="#8ab4e2"/><circle cx="36" cy="36" fill="#e2e7f6" r="10"/><path d="m36 26a9.986 9.986 0 0 0 -7.992 15.992 9.986 9.986 0 0 0 13.984-13.984 9.941 9.941 0 0 0 -5.992-2.008z" fill="#f2f2f2"/><path d="m31 35h2v2h-2z" fill="#78a0d4"/><path d="m35 35h2v2h-2z" fill="#78a0d4"/><path d="m39 35h2v2h-2z" fill="#78a0d4"/><g fill="#c8cded"><path d="m5 25h14v2h-14z"/><path d="m5 29h14v2h-14z"/><path d="m5 33h14v2h-14z"/><path d="m5 37h14v2h-14z"/><path d="m5 41h14v2h-14z"/><path d="m5 45h14v2h-14z"/><path d="m5 49h20v2h-20z"/></g><path d="m9 18h3v3h2v-4a1 1 0 0 0 -.02-.2l-1-5a1 1 0 0 0 -.98-.8h-3a1 1 0 0 0 -.98.8l-1 5a1 1 0 0 0 -.02.2v4h2zm2.181-5 .6 3h-2.561l.6-3z"/><path d="m16 21h3a3 3 0 0 0 2.234-5 3 3 0 0 0 -2.234-5h-3a1 1 0 0 0 -1 1v8a1 1 0 0 0 1 1zm1-8h2a1 1 0 0 1 0 2h-2zm0 4h2a1 1 0 0 1 0 2h-2z"/><path d="m26 21h1a3 3 0 0 0 3-3v-1h-2v1a1 1 0 0 1 -1 1h-1a1 1 0 0 1 -1-1v-4a1 1 0 0 1 1-1h1a1 1 0 0 1 1 1v1h2v-1a3 3 0 0 0 -3-3h-1a3 3 0 0 0 -3 3v4a3 3 0 0 0 3 3z"/><path d="m60.111 51.641-5.581-3.489a1 1 0 0 0 -1.237.141l-.293.293-1.086-1.086.086-.086a3.414 3.414 0 0 0 0-4.828l-1.8-1.8a14.874 14.874 0 0 0 -3.2-14.95v-23.836a1 1 0 0 0 -1-1h-40a1 1 0 0 0 -1 1v5h-3a1 1 0 0 0 -1 1v54a1 1 0 0 0 1 1h40a1 1 0 0 0 1-1v-5h3a1 1 0 0 0 1-1v-3.66a3.338 3.338 0 0 0 .414-.34l.086-.086 1.086 1.086-.293.293a1 1 0 0 0 -.141 1.237l3.489 5.581a6.147 6.147 0 1 0 8.47-8.47zm-9.525-7.641a1.415 1.415 0 0 1 0 2l-4.586 4.586a1.451 1.451 0 0 1 -2 0l-1.222-1.222a15.089 15.089 0 0 0 6.586-6.586zm-14.586 5a13 13 0 1 1 13-13 13.015 13.015 0 0 1 -13 13zm-2-38.586 5.586 5.586h-5.586zm-27-7.414h38v21.028a15.018 15.018 0 0 0 -2-1.284v-5.744a1 1 0 0 0 -.293-.707l-9-9a1 1 0 0 0 -.707-.293h-26zm-4 58v-52h29v8a1 1 0 0 0 1 1h8v3.875a15 15 0 1 0 -.212 28.325l.212.211v10.589zm42-6h-2v-2.66a3.375 3.375 0 0 0 2 .66zm3.914-4.5 1.586-1.586 1.086 1.086-1.586 1.586zm7.939 10.5a4.124 4.124 0 0 1 -3.517-1.949l-3.066-4.906 3.875-3.875 4.906 3.066a4.147 4.147 0 0 1 -2.198 7.664z"/><path d="m36 25a11 11 0 1 0 11 11 11.013 11.013 0 0 0 -11-11zm0 20a9 9 0 1 1 9-9 9.01 9.01 0 0 1 -9 9z"/><path d="m31 35h2v2h-2z"/><path d="m35 35h2v2h-2z"/><path d="m39 35h2v2h-2z"/><path d="m5 25h14v2h-14z"/><path d="m5 29h14v2h-14z"/><path d="m5 33h14v2h-14z"/><path d="m5 37h14v2h-14z"/><path d="m5 41h14v2h-14z"/><path d="m5 45h14v2h-14z"/><path d="m5 49h20v2h-20z"/></g></svg>