<svg id="Flat" viewBox="0 0 64 64" xmlns="http://www.w3.org/2000/svg">
  <path d="m27.5 53h9v10h-9z" fill="#7a829c" />
  <path d="m27.5 53h9v2h-9z" fill="#646d8b" />
  <path d="m29.5 53h7v10h-7z" fill="#646d8b" />
  <path d="m29.5 53h7v2h-7z" fill="#505a76" />
  <rect fill="#fafdff" height="52" rx="6" width="52" x="6" y="1" />
  <path d="m12 3a4 4 0 0 0 -4 4v42a5.9635 5.9635 0 0 0 .8813 3.1187 5.9635 5.9635 0 0 0 3.1187.8813h40a6 6 0 0 0 6-6v-40a5.9635 5.9635 0 0 0 -.8813-3.1187 5.9635 5.9635 0 0 0 -3.1187-.8813z" fill="#eef6ff" />
  <rect fill="#6bc9f2" height="44" rx="2" transform="matrix(0 1 -1 0 59 -5)" width="44" x="10" y="5" />
  <path d="m54 47v-40h-40a2 2 0 0 0 -2 2v40h40a2 2 0 0 0 2-2z" fill="#7dd7f8" />
  <g fill="#fafdff">
    <path d="m38 33h-12a2 2 0 0 1 -2-2v-2a7.55 7.55 0 0 1 5.1622-7.1621l4.41-1.47a3.55 3.55 0 0 0 2.4278-3.3679 4 4 0 0 0 -4-4 4 4 0 0 0 -4 4 2 2 0 0 1 -2 2 2 2 0 0 1 -2-2 8 8 0 0 1 8-8 8 8 0 0 1 8 8 7.55 7.55 0 0 1 -5.1622 7.1621l-4.4105 1.47a3.55 3.55 0 0 0 -2.4273 3.3679h10a2 2 0 0 1 2 2 2 2 0 0 1 -2 2z" />
    <path d="m19.5 44h-3v-7a1 1 0 0 0 -2 0v8a1 1 0 0 0 1 1h4a1 1 0 0 0 0-2z" />
    <path d="m48.5 44h-3v-7a1 1 0 0 0 -2 0v8a1 1 0 0 0 1 1h4a1 1 0 0 0 0-2z" />
    <path d="m26.5 38a1 1 0 0 0 0-2h-4a1 1 0 0 0 -1 1v8a1 1 0 0 0 1 1h4a1 1 0 0 0 0-2h-3v-2h2a1 1 0 0 0 0-2h-2v-2z" />
    <path d="m41.5 38a1 1 0 0 0 0-2h-4a1 1 0 0 0 -1 1v8a1 1 0 0 0 1 1h4a1 1 0 0 0 0-2h-3v-2h2a1 1 0 0 0 0-2h-2v-2z" />
    <path d="m34.7983 36.0454a1.001 1.001 0 0 0 -1.2529.6563l-1.5454 4.9458-1.5454-4.9458a1 1 0 0 0 -1.9092.5966l2.5 8a1 1 0 0 0 1.9092 0l2.5-8a1.0006 1.0006 0 0 0 -.6563-1.2529z" />
  </g>
</svg>